<svg xmlns="http://www.w3.org/2000/svg" xmlns:xlink="http://www.w3.org/1999/xlink" aria-hidden="true" role="img" width="16" height="16" preserveAspectRatio="xMidYMid meet" viewBox="0 0 24 24"><path d="M1 3v2h22V3a2.001 2.001 0 0 0-2-2H3a2.001 2.001 0 0 0-2 2zm3.007 1.008a1 1 0 1 1 .999-1a1 1 0 0 1-1 1zm2.997-.001a1 1 0 1 1 1-1a1.002 1.002 0 0 1-1 1z" fill="#ffbf00"/><path d="M1 6v14a2 2 0 0 0 2 2h18a2 2 0 0 0 2-2V6zm20 14H3V8h18z" fill="#ffbf00"/><path d="M9 18l.7-.7l.7-.7l-1.3-1.3L7.8 14l1.3-1.3l1.3-1.3l-.7-.7L9 10l-2 2l-2 2l2 2l2 2z" fill="#ffbf00"/><path d="M13.6 16.6l.7.7l.7.7l2-2l2-2l-2-2l-2-2l-.7.7l-.7.7l1.3 1.3l1.3 1.3l-1.3 1.3l-1.3 1.3z" fill="#ffbf00"/><path d="M9 18l.7-.7l.7-.7l-1.3-1.3L7.8 14l1.3-1.3l1.3-1.3l-.7-.7L9 10l-2 2l-2 2l2 2l2 2z" fill="#ffbf00"/><path d="M13.6 16.6l.7.7l.7.7l2-2l2-2l-2-2l-2-2l-.7.7l-.7.7l1.3 1.3l1.3 1.3l-1.3 1.3l-1.3 1.3z" fill="#ffbf00"/></svg>