<svg xmlns="http://www.w3.org/2000/svg" xmlns:xlink="http://www.w3.org/1999/xlink" aria-hidden="true" role="img" width="16" height="16" preserveAspectRatio="xMidYMid meet" viewBox="0 0 24 24"><g fill="none"><path d="M8 13a1 1 0 1 1 0-2a1 1 0 0 1 0 2z" fill="#98fc03"/><path d="M8 17a1 1 0 1 1 0-2a1 1 0 0 1 0 2z" fill="#98fc03"/><path d="M11 16a1 1 0 1 0 2 0a1 1 0 0 0-2 0z" fill="#98fc03"/><path d="M16 17a1 1 0 1 1 0-2a1 1 0 0 1 0 2z" fill="#98fc03"/><path d="M11 12a1 1 0 1 0 2 0a1 1 0 0 0-2 0z" fill="#98fc03"/><path d="M16 13a1 1 0 1 1 0-2a1 1 0 0 1 0 2z" fill="#98fc03"/><path d="M8 7a1 1 0 0 0 0 2h8a1 1 0 1 0 0-2H8z" fill="#98fc03"/><path fill-rule="evenodd" clip-rule="evenodd" d="M6 3a3 3 0 0 0-3 3v12a3 3 0 0 0 3 3h12a3 3 0 0 0 3-3V6a3 3 0 0 0-3-3H6zm12 2H6a1 1 0 0 0-1 1v12a1 1 0 0 0 1 1h12a1 1 0 0 0 1-1V6a1 1 0 0 0-1-1z" fill="#98fc03"/></g></svg>