<svg xmlns="http://www.w3.org/2000/svg" xmlns:xlink="http://www.w3.org/1999/xlink" aria-hidden="true" role="img" width="16" height="16" preserveAspectRatio="xMidYMid meet" viewBox="0 0 32 32"><path d="M29 21.278V19a4 4 0 0 0-8 0v2.278A1.994 1.994 0 0 0 20 23v5a2.002 2.002 0 0 0 2 2h6a2.002 2.002 0 0 0 2-2v-5a1.994 1.994 0 0 0-1-1.722zM25 17a2.002 2.002 0 0 1 2 2v2h-4v-2a2.002 2.002 0 0 1 2-2zm-3 11v-5h6v5z" fill="#98fc03"/><path d="M2 2h2v4H2z" fill="#98fc03"/><path d="M14 2h2v4h-2z" fill="#98fc03"/><path d="M18 2h2v4h-2z" fill="#98fc03"/><path d="M2 8h2v8H2z" fill="#98fc03"/><path d="M2 18h2v8H2z" fill="#98fc03"/><path d="M14 18h2v8h-2z" fill="#98fc03"/><path d="M6 8h2v8H6z" fill="#98fc03"/><path d="M18 8h2v6h-2z" fill="#98fc03"/><path d="M10 26H8a2.002 2.002 0 0 1-2-2v-4a2.002 2.002 0 0 1 2-2h2a2.002 2.002 0 0 1 2 2v4a2.002 2.002 0 0 1-2 2zm-2-6v4h2v-4z" fill="#98fc03"/><path d="M14 16h-2a2.002 2.002 0 0 1-2-2v-4a2.002 2.002 0 0 1 2-2h2a2.002 2.002 0 0 1 2 2v4a2.002 2.002 0 0 1-2 2zm-2-6v4h2v-4z" fill="#98fc03"/><path d="M10 6H8a2.002 2.002 0 0 1-2-2V2h2v2h2V2h2v2a2.002 2.002 0 0 1-2 2z" fill="#98fc03"/></svg>