<svg xmlns="http://www.w3.org/2000/svg" xmlns:xlink="http://www.w3.org/1999/xlink" aria-hidden="true" role="img" width="16" height="16" preserveAspectRatio="xMidYMid meet" viewBox="0 0 32 32"><path d="M18 11h8v2h-8z" fill="#32a852"/><path d="M6 19h8v2H6z" fill="#32a852"/><path d="M10 16a4 4 0 1 1 4-4a4.005 4.005 0 0 1-4 4zm0-6a2 2 0 1 0 2 2a2.002 2.002 0 0 0-2-2z" fill="#32a852"/><path d="M22 24a4 4 0 1 1 4-4a4.005 4.005 0 0 1-4 4zm0-6a2 2 0 1 0 2 2a2.002 2.002 0 0 0-2-2z" fill="#32a852"/><path d="M28 30H4a2.002 2.002 0 0 1-2-2V4a2.002 2.002 0 0 1 2-2h24a2.002 2.002 0 0 1 2 2v24a2.002 2.002 0 0 1-2 2zM4 4v24h24V4z" fill="#32a852"/></svg>