<svg xmlns="http://www.w3.org/2000/svg" xmlns:xlink="http://www.w3.org/1999/xlink" aria-hidden="true" role="img" width="16" height="16" preserveAspectRatio="xMidYMid meet" viewBox="0 0 15 15"><g fill="none"><path d="M10 7.995V10H8V7.995h2z" fill="#34eb64"/><path d="M10 4.997v1.998H8V4.997h2z" fill="#34eb64"/><path d="M7 4.997H5v1.998h2V4.997z" fill="#34eb64"/><path d="M7 7.995H5V10h2V7.995z" fill="#34eb64"/><path fill-rule="evenodd" clip-rule="evenodd" d="M1 1.5A1.5 1.5 0 0 1 2.5 0h8.207L14 3.293V13.5a1.5 1.5 0 0 1-1.5 1.5h-10A1.5 1.5 0 0 1 1 13.5v-12zm10 2.497H4V11h7V3.997z" fill="#34eb64"/></g></svg>