<svg xmlns="http://www.w3.org/2000/svg" xmlns:xlink="http://www.w3.org/1999/xlink" aria-hidden="true" role="img" width="16" height="16" preserveAspectRatio="xMidYMid meet" viewBox="0 0 48 48"><g fill="none" stroke="#fc034e" stroke-width="4"><path clip-rule="evenodd" d="M4.629 12.749L24 5l19.371 7.749a1 1 0 0 1 .629.928V42a1 1 0 0 1-1 1H5a1 1 0 0 1-1-1V13.677a1 1 0 0 1 .629-.928z" stroke-linejoin="round"/><path d="M24 22v10" stroke-linecap="round"/><path clip-rule="evenodd" d="M33 27c1.657 0 3-1.12 3-2.5S34.657 22 33 22h-2.7a.3.3 0 0 0-.3.3v2.2c0 1.38 1.343 2.5 3 2.5z"/><path d="M30 22v10" stroke-linecap="round"/><path d="M12 22h6.005L12 32h6.005" stroke-linecap="round" stroke-linejoin="round"/></g></svg>